<?xml version="1.0" encoding="utf-8"?>
<!-- Generator: Adobe Illustrator 16.0.0, SVG Export Plug-In . SVG Version: 6.00 Build 0)  -->
<!DOCTYPE svg PUBLIC "-//W3C//DTD SVG 1.1//EN" "http://www.w3.org/Graphics/SVG/1.1/DTD/svg11.dtd">
<svg version="1.1" id="Layer_1" xmlns="http://www.w3.org/2000/svg" xmlns:xlink="http://www.w3.org/1999/xlink" x="0px" y="0px"
	 width="215.901px" height="94.105px" viewBox="0 0 215.901 94.105" style="enable-background:new 0 0 215.901 94.105;"
	 xml:space="preserve">
<g>
	<path style="fill:#FFFFFF;" d="M10.201,14.101c0-3.7-4.4-2.9-4.4-6c0-1.4,1-2.4,6.601-4.5c7.3-2.8,10-3.6,12.801-3.6
		c1.8,0,2.8,1.2,2.8,3c0,2.7-0.8,4.8-5.2,29.102c-4.3,23.601-5.3,27.102-5.3,29.501c0,6.101,5.9,3.3,5.9,6.601c0,2.1-2,3.1-7.5,5.3
		c-6.9,2.8-10.2,3.7-12.801,3.7c-2.4,0-3.1-2.4-3.1-4.4c0-2.6,0.9-5.4,5.101-29.401C9.5,18.201,10.201,15.701,10.201,14.101z"/>
	<path style="fill:#FFFFFF;" d="M62.1,69.104c5.601,0,9.801-2.6,14.401-5.4c1.1-0.8,3.101-2.2,4.5-2.2c1.5,0,2.9,1.1,2.9,2.6
		c0,4.2-13.001,13.101-27.002,13.101c-12.5,0-24.001-6.6-24.001-20.501c0-14.601,15.001-29.902,34.402-29.902
		c10,0,18.801,4.9,18.801,11.701C86.102,52.803,60,56.204,50,57.503C50.2,65.004,54.6,69.104,62.1,69.104z M71.401,38.702
		c0-3.3-2.9-5.1-5.9-5.1c-7.2,0-14.401,10.601-15.401,17.101C56.5,50.303,71.401,46.903,71.401,38.702z"/>
	<path style="fill:#FFFFFF;" d="M107.998,77.205c-11.101,0-17.101-8.9-17.101-19.301c0-15.901,13.701-31.102,29.802-31.102
		c4.8,0,9.5,1.8,12.101,6c2.4-2.2,7.2-6,10.4-6c1.5,0,3.4,1.6,2.7,4.5c-1.6,6.3-5.4,25.102-5.4,31.102c0,5.6,6.201,2.5,6.201,6.3
		c0,1.8-1,2.5-5.301,4.4c-8.1,3.6-10.3,4.1-11.601,4.1c-2.8,0-4.1-2.4-4.1-5c0-2,0.3-4,0.8-6.5
		C122.999,71.704,116.499,77.205,107.998,77.205z M113.599,68.704c8.9,0,14.201-18.001,14.201-27.401c0-3.9-1.7-7.401-6-7.401
		c-7.1,0-14.601,14.001-14.601,24.902C107.198,62.904,108.498,68.704,113.599,68.704z"/>
	<path style="fill:#FFFFFF;" d="M156.097,94.105c-4.4,0-5.9-1.1-5.9-3.2c0-3.7,4-2.1,5.6-6.4c0.9-2.4,1.3-5.2,4.3-21.801
		c2.601-13.801,3.2-17.301,3.2-20.201c0-4.8-5.4-3.6-5.4-6.8c0-1.4,1.4-2.6,5.4-4.5c8.101-3.8,9.801-4.4,12.201-4.4
		c3.3,0,4,2.3,4,6.4v4c4.5-5.5,8.4-10.4,18.801-10.4c11.201,0,17.601,8.2,17.601,19.701c0,14.701-13.601,30.702-29.302,30.702
		c-3.101,0-9.101-0.8-9.101-5c0-1.4,0.7-3.701,2.5-3.701c1,0,2,0.2,3,0.2c6.9,0,15.801-10.4,15.801-22.401c0-4.4-1.4-9.3-6.601-9.3
		c-7.5,0-13.201,11.201-14.701,18.701c-4.4,21.802-5.2,25.502-5.2,28.302c0,5,3.4,3,3.4,6.4c0,3.601-3.6,3.7-7.7,3.7H156.097z"/>
</g>
</svg>
